<svg width="1200" height="700" viewBox="0 0 1200 700" fill="none" xmlns="http://www.w3.org/2000/svg">
  <defs>
    <linearGradient id="bg" x1="0" y1="0" x2="1200" y2="700" gradientUnits="userSpaceOnUse">
      <stop stop-color="#130D2E"/>
      <stop offset="1" stop-color="#080A1A"/>
    </linearGradient>
    <radialGradient id="glowA" cx="0" cy="0" r="1" gradientUnits="userSpaceOnUse" gradientTransform="translate(280 180) rotate(37) scale(420 260)">
      <stop stop-color="#7C3AED" stop-opacity="0.55"/>
      <stop offset="1" stop-color="#7C3AED" stop-opacity="0"/>
    </radialGradient>
    <radialGradient id="glowB" cx="0" cy="0" r="1" gradientUnits="userSpaceOnUse" gradientTransform="translate(930 530) rotate(-18) scale(400 260)">
      <stop stop-color="#2563EB" stop-opacity="0.45"/>
      <stop offset="1" stop-color="#2563EB" stop-opacity="0"/>
    </radialGradient>
    <linearGradient id="line" x1="210" y1="120" x2="980" y2="560" gradientUnits="userSpaceOnUse">
      <stop stop-color="#A78BFA"/>
      <stop offset="1" stop-color="#60A5FA"/>
    </linearGradient>
    <filter id="softGlow" x="-50%" y="-50%" width="200%" height="200%">
      <feGaussianBlur stdDeviation="6" result="blur"/>
      <feMerge>
        <feMergeNode in="blur"/>
        <feMergeNode in="SourceGraphic"/>
      </feMerge>
    </filter>
  </defs>

  <rect width="1200" height="700" fill="url(#bg)"/>
  <rect width="1200" height="700" fill="url(#glowA)"/>
  <rect width="1200" height="700" fill="url(#glowB)"/>

  <g opacity="0.23">
    <path d="M0 80H1200M0 180H1200M0 280H1200M0 380H1200M0 480H1200M0 580H1200" stroke="white" stroke-width="1"/>
    <path d="M100 0V700M260 0V700M420 0V700M580 0V700M740 0V700M900 0V700M1060 0V700" stroke="white" stroke-width="1"/>
  </g>

  <g filter="url(#softGlow)" stroke="url(#line)" stroke-width="5" stroke-linecap="round" stroke-linejoin="round">
    <path d="M210 120H390L500 240H700L820 360H980"/>
    <path d="M500 240V420L650 510H840"/>
    <path d="M700 240V160L860 90H1020"/>
  </g>

  <g>
    <circle cx="210" cy="120" r="22" fill="#0F172A" stroke="#C4B5FD" stroke-width="4"/>
    <circle cx="390" cy="120" r="18" fill="#0F172A" stroke="#DDD6FE" stroke-width="4"/>
    <circle cx="500" cy="240" r="20" fill="#0F172A" stroke="#A78BFA" stroke-width="4"/>
    <circle cx="700" cy="240" r="20" fill="#0F172A" stroke="#93C5FD" stroke-width="4"/>
    <circle cx="820" cy="360" r="20" fill="#0F172A" stroke="#60A5FA" stroke-width="4"/>
    <circle cx="980" cy="360" r="24" fill="#0F172A" stroke="#38BDF8" stroke-width="4"/>
    <circle cx="500" cy="420" r="18" fill="#0F172A" stroke="#C4B5FD" stroke-width="4"/>
    <circle cx="650" cy="510" r="18" fill="#0F172A" stroke="#93C5FD" stroke-width="4"/>
    <circle cx="840" cy="510" r="22" fill="#0F172A" stroke="#67E8F9" stroke-width="4"/>
    <circle cx="700" cy="160" r="16" fill="#0F172A" stroke="#A5B4FC" stroke-width="4"/>
    <circle cx="860" cy="90" r="16" fill="#0F172A" stroke="#7DD3FC" stroke-width="4"/>
    <circle cx="1020" cy="90" r="20" fill="#0F172A" stroke="#22D3EE" stroke-width="4"/>
  </g>

  <g opacity="0.9">
    <rect x="760" y="455" width="260" height="120" rx="18" fill="#0B1225" fill-opacity="0.72" stroke="#60A5FA" stroke-opacity="0.5"/>
    <circle cx="800" cy="495" r="7" fill="#A78BFA"/>
    <circle cx="830" cy="495" r="7" fill="#60A5FA"/>
    <circle cx="860" cy="495" r="7" fill="#22D3EE"/>
    <rect x="790" y="520" width="190" height="14" rx="7" fill="#1E293B"/>
  </g>
</svg>
